<mxfile host="app.diagrams.net" agent="Mozilla/5.0 (Windows NT 10.0; Win64; x64) AppleWebKit/537.36 (KHTML, like Gecko) Chrome/129.0.0.0 Safari/537.36" version="24.7.17">
  <diagram name="Page-1" id="e3a06f82-3646-2815-327d-82caf3d4e204">
    <mxGraphModel dx="1434" dy="772" grid="1" gridSize="10" guides="1" tooltips="1" connect="1" arrows="1" fold="1" page="1" pageScale="1.5" pageWidth="1169" pageHeight="826" background="none" math="0" shadow="0">
      <root>
        <mxCell id="0" style=";html=1;" />
        <mxCell id="1" style=";html=1;" parent="0" />
        <UserObject label="&lt;br&gt;&lt;div&gt;&lt;br/&gt;&lt;/div&gt;" id="R8DhF10whR4bV6vRvtgO-19">
          <mxCell style="whiteSpace=wrap;html=1;fillColor=#f5f5f5;fontSize=14;strokeColor=#666666;verticalAlign=top;fontColor=#333333;sketch=1;curveFitting=1;jiggle=2;" parent="1" vertex="1">
            <mxGeometry x="560" y="80" width="308" height="680" as="geometry" />
          </mxCell>
        </UserObject>
        <mxCell id="R8DhF10whR4bV6vRvtgO-110" value="" style="verticalLabelPosition=bottom;aspect=fixed;html=1;verticalAlign=top;strokeColor=none;align=center;outlineConnect=0;shape=mxgraph.citrix.command_center;rounded=0;fontFamily=Helvetica;fontSize=12;fontColor=default;fillColor=none;gradientColor=none;" parent="1" vertex="1">
          <mxGeometry x="756.25" y="90.05" width="75.5" height="96" as="geometry" />
        </mxCell>
        <UserObject label="&lt;br&gt;&lt;div&gt;&lt;br/&gt;&lt;/div&gt;" id="6a7d8f32e03d9370-57">
          <mxCell style="whiteSpace=wrap;html=1;fillColor=#f5f5f5;fontSize=14;strokeColor=#666666;verticalAlign=top;fontColor=#333333;sketch=1;curveFitting=1;jiggle=2;" parent="1" vertex="1">
            <mxGeometry x="170" y="80" width="308" height="680" as="geometry" />
          </mxCell>
        </UserObject>
        <mxCell id="6a7d8f32e03d9370-62" value="&lt;font data-font-src=&quot;https://fonts.googleapis.com/css?family=Kalam&quot; face=&quot;Kalam&quot;&gt;Ad Tech Ecosystem&lt;/font&gt;" style="text;strokeColor=none;fillColor=none;html=1;fontSize=24;fontStyle=1;verticalAlign=middle;align=center;" parent="1" vertex="1">
          <mxGeometry x="254.5" y="10" width="861" height="40" as="geometry" />
        </mxCell>
        <mxCell id="R8DhF10whR4bV6vRvtgO-118" style="edgeStyle=orthogonalEdgeStyle;shape=connector;rounded=0;sketch=1;jiggle=2;curveFitting=1;orthogonalLoop=1;jettySize=auto;html=1;strokeColor=default;align=center;verticalAlign=middle;fontFamily=Helvetica;fontSize=12;fontColor=default;labelBackgroundColor=default;endArrow=classic;" parent="1" edge="1">
          <mxGeometry relative="1" as="geometry">
            <mxPoint x="252" y="242" as="sourcePoint" />
            <mxPoint x="251.79999999999995" y="540" as="targetPoint" />
          </mxGeometry>
        </mxCell>
        <mxCell id="R8DhF10whR4bV6vRvtgO-2" value="" style="image;aspect=fixed;perimeter=ellipsePerimeter;html=1;align=center;shadow=0;dashed=0;spacingTop=3;image=img/lib/active_directory/user_accounts.svg;" parent="1" vertex="1">
          <mxGeometry x="238" y="193.5" width="50" height="48.5" as="geometry" />
        </mxCell>
        <mxCell id="R8DhF10whR4bV6vRvtgO-8" value="&lt;font face=&quot;Kalam&quot; style=&quot;font-size: 14px;&quot; data-font-src=&quot;https://fonts.googleapis.com/css?family=Kalam&quot;&gt;Advertiser&lt;br&gt;&lt;/font&gt;" style="text;html=1;align=center;verticalAlign=middle;whiteSpace=wrap;rounded=0;" parent="1" vertex="1">
          <mxGeometry x="271" y="202.75" width="130" height="30" as="geometry" />
        </mxCell>
        <mxCell id="R8DhF10whR4bV6vRvtgO-13" value="&lt;font face=&quot;Kalam&quot; style=&quot;font-size: 14px;&quot; data-font-src=&quot;https://fonts.googleapis.com/css?family=Kalam&quot;&gt;First Party Ad Server&lt;br&gt;&lt;/font&gt;" style="text;html=1;align=center;verticalAlign=middle;whiteSpace=wrap;rounded=0;" parent="1" vertex="1">
          <mxGeometry x="274.5" y="525" width="130" height="30" as="geometry" />
        </mxCell>
        <mxCell id="R8DhF10whR4bV6vRvtgO-120" style="edgeStyle=orthogonalEdgeStyle;shape=connector;rounded=0;sketch=1;jiggle=2;curveFitting=1;orthogonalLoop=1;jettySize=auto;html=1;strokeColor=default;align=center;verticalAlign=middle;fontFamily=Helvetica;fontSize=12;fontColor=default;labelBackgroundColor=default;endArrow=classic;" parent="1" source="R8DhF10whR4bV6vRvtgO-17" edge="1">
          <mxGeometry relative="1" as="geometry">
            <mxPoint x="588.2" y="320" as="targetPoint" />
            <mxPoint x="270.99999999999994" y="560" as="sourcePoint" />
            <Array as="points">
              <mxPoint x="271" y="380" />
              <mxPoint x="589" y="380" />
            </Array>
          </mxGeometry>
        </mxCell>
        <mxCell id="R8DhF10whR4bV6vRvtgO-17" value="" style="verticalLabelPosition=bottom;sketch=0;aspect=fixed;html=1;verticalAlign=top;strokeColor=none;align=center;outlineConnect=0;shape=mxgraph.citrix.web_server;" parent="1" vertex="1">
          <mxGeometry x="224.5" y="540" width="76.5" height="90" as="geometry" />
        </mxCell>
        <mxCell id="R8DhF10whR4bV6vRvtgO-18" value="&lt;font style=&quot;font-size: 20px;&quot; face=&quot;Kalam&quot;&gt;Demand / Buy Side&lt;br&gt;&lt;/font&gt;" style="text;html=1;align=center;verticalAlign=middle;whiteSpace=wrap;rounded=0;" parent="1" vertex="1">
          <mxGeometry x="223" y="92" width="183" height="30" as="geometry" />
        </mxCell>
        <UserObject label="&lt;br&gt;&lt;div&gt;&lt;br/&gt;&lt;/div&gt;" id="R8DhF10whR4bV6vRvtgO-20">
          <mxCell style="whiteSpace=wrap;html=1;fillColor=#f5f5f5;fontSize=14;strokeColor=#666666;verticalAlign=top;fontColor=#333333;sketch=1;curveFitting=1;jiggle=2;" parent="1" vertex="1">
            <mxGeometry x="920" y="80" width="308" height="680" as="geometry" />
          </mxCell>
        </UserObject>
        <mxCell id="R8DhF10whR4bV6vRvtgO-21" value="" style="image;sketch=0;aspect=fixed;html=1;points=[];align=center;fontSize=12;image=img/lib/mscae/Exchange_On_premises_Access.svg;" parent="1" vertex="1">
          <mxGeometry x="689.25" y="341.66" width="49.5" height="85.34" as="geometry" />
        </mxCell>
        <mxCell id="R8DhF10whR4bV6vRvtgO-22" value="&lt;font face=&quot;Kalam&quot; style=&quot;font-size: 14px;&quot; data-font-src=&quot;https://fonts.googleapis.com/css?family=Kalam&quot;&gt;Ad Exchange&lt;br&gt;&lt;/font&gt;" style="text;html=1;align=center;verticalAlign=middle;whiteSpace=wrap;rounded=0;" parent="1" vertex="1">
          <mxGeometry x="713" y="397.00000000000006" width="130" height="30" as="geometry" />
        </mxCell>
        <mxCell id="R8DhF10whR4bV6vRvtgO-23" value="" style="verticalLabelPosition=bottom;sketch=0;aspect=fixed;html=1;verticalAlign=top;strokeColor=none;align=center;outlineConnect=0;shape=mxgraph.citrix.desktop_web;" parent="1" vertex="1">
          <mxGeometry x="780" y="243" width="76.5" height="90" as="geometry" />
        </mxCell>
        <mxCell id="R8DhF10whR4bV6vRvtgO-24" value="" style="verticalLabelPosition=bottom;sketch=0;aspect=fixed;html=1;verticalAlign=top;strokeColor=none;align=center;outlineConnect=0;shape=mxgraph.citrix.desktop_web;" parent="1" vertex="1">
          <mxGeometry x="580" y="243" width="76.5" height="90" as="geometry" />
        </mxCell>
        <mxCell id="R8DhF10whR4bV6vRvtgO-25" value="&lt;div&gt;&lt;font face=&quot;Kalam&quot; style=&quot;font-size: 14px;&quot; data-font-src=&quot;https://fonts.googleapis.com/css?family=Kalam&quot;&gt;DSP&lt;/font&gt;&lt;/div&gt;&lt;div&gt;&lt;font face=&quot;Kalam&quot; style=&quot;font-size: 14px;&quot; data-font-src=&quot;https://fonts.googleapis.com/css?family=Kalam&quot;&gt;Demand Side Platform&lt;br&gt;&lt;/font&gt;&lt;/div&gt;" style="text;html=1;align=center;verticalAlign=middle;whiteSpace=wrap;rounded=0;" parent="1" vertex="1">
          <mxGeometry x="560" y="218.75" width="140" height="30" as="geometry" />
        </mxCell>
        <mxCell id="R8DhF10whR4bV6vRvtgO-27" value="&lt;font style=&quot;font-size: 14px;&quot; face=&quot;Kalam&quot;&gt;SSP&lt;br&gt;Selling Side Platform&lt;br&gt;&lt;/font&gt;" style="text;html=1;align=center;verticalAlign=middle;whiteSpace=wrap;rounded=0;" parent="1" vertex="1">
          <mxGeometry x="734" y="218.75" width="130" height="30" as="geometry" />
        </mxCell>
        <mxCell id="R8DhF10whR4bV6vRvtgO-31" value="" style="verticalLabelPosition=bottom;sketch=0;aspect=fixed;html=1;verticalAlign=top;strokeColor=none;align=center;outlineConnect=0;shape=mxgraph.citrix.merchandising_server;" parent="1" vertex="1">
          <mxGeometry x="580" y="545" width="75" height="90" as="geometry" />
        </mxCell>
        <mxCell id="R8DhF10whR4bV6vRvtgO-32" value="" style="verticalLabelPosition=bottom;sketch=0;aspect=fixed;html=1;verticalAlign=top;strokeColor=none;align=center;outlineConnect=0;shape=mxgraph.citrix.merchandising_server;" parent="1" vertex="1">
          <mxGeometry x="780.5" y="545" width="75" height="90" as="geometry" />
        </mxCell>
        <mxCell id="R8DhF10whR4bV6vRvtgO-35" value="&lt;div style=&quot;font-size: 14px;&quot;&gt;&lt;font style=&quot;font-size: 14px;&quot; data-font-src=&quot;https://fonts.googleapis.com/css?family=Kalam&quot; face=&quot;Kalam&quot;&gt;DMP&lt;/font&gt;&lt;/div&gt;&lt;div style=&quot;&quot;&gt;&lt;font style=&quot;font-size: 10px;&quot; data-font-src=&quot;https://fonts.googleapis.com/css?family=Kalam&quot; face=&quot;Kalam&quot;&gt;Data Management Platform&lt;br&gt;&lt;/font&gt;&lt;/div&gt;&lt;div style=&quot;&quot;&gt;&lt;font style=&quot;font-size: 12px;&quot; data-font-src=&quot;https://fonts.googleapis.com/css?family=Kalam&quot; face=&quot;Kalam&quot;&gt;&lt;br&gt;&lt;/font&gt;&lt;div align=&quot;left&quot;&gt;&lt;font face=&quot;Kalam&quot;&gt;Collects 1st party data and combines it with 3rd party&amp;nbsp;&lt;/font&gt;&lt;/div&gt;&lt;div align=&quot;left&quot;&gt;&lt;font face=&quot;Kalam&quot;&gt;data&lt;/font&gt;&lt;br&gt;&lt;/div&gt;&lt;/div&gt;" style="text;html=1;align=center;verticalAlign=middle;whiteSpace=wrap;rounded=0;" parent="1" vertex="1">
          <mxGeometry x="564" y="637" width="170" height="91" as="geometry" />
        </mxCell>
        <mxCell id="R8DhF10whR4bV6vRvtgO-37" value="&lt;div style=&quot;font-size: 14px;&quot;&gt;&lt;font style=&quot;font-size: 14px;&quot; data-font-src=&quot;https://fonts.googleapis.com/css?family=Kalam&quot; face=&quot;Kalam&quot;&gt;DMP&lt;/font&gt;&lt;/div&gt;&lt;div style=&quot;font-size: 10px;&quot;&gt;&lt;font data-font-src=&quot;https://fonts.googleapis.com/css?family=Kalam&quot; face=&quot;Kalam&quot;&gt;Data Management Platform&lt;/font&gt;&lt;br&gt;&lt;/div&gt;&lt;div&gt;&lt;font face=&quot;Kalam&quot;&gt;&lt;br&gt;&lt;/font&gt;&lt;/div&gt;&lt;div&gt;&lt;font face=&quot;Kalam&quot;&gt;Monetises publisher&#39;s data&lt;/font&gt;&lt;/div&gt;" style="text;html=1;align=center;verticalAlign=middle;whiteSpace=wrap;rounded=0;" parent="1" vertex="1">
          <mxGeometry x="713" y="631" width="170" height="73" as="geometry" />
        </mxCell>
        <mxCell id="R8DhF10whR4bV6vRvtgO-38" value="&lt;font style=&quot;font-size: 14px;&quot; face=&quot;Kalam&quot;&gt;Publisher&lt;/font&gt;" style="text;html=1;align=center;verticalAlign=middle;whiteSpace=wrap;rounded=0;" parent="1" vertex="1">
          <mxGeometry x="1040" y="188.75" width="130" height="30" as="geometry" />
        </mxCell>
        <mxCell id="R8DhF10whR4bV6vRvtgO-119" style="edgeStyle=orthogonalEdgeStyle;shape=connector;rounded=0;sketch=1;jiggle=2;curveFitting=1;orthogonalLoop=1;jettySize=auto;html=1;strokeColor=default;align=center;verticalAlign=middle;fontFamily=Helvetica;fontSize=12;fontColor=default;labelBackgroundColor=default;endArrow=classic;" parent="1" edge="1">
          <mxGeometry relative="1" as="geometry">
            <mxPoint x="1059" y="228" as="sourcePoint" />
            <mxPoint x="1059.1" y="540" as="targetPoint" />
          </mxGeometry>
        </mxCell>
        <mxCell id="R8DhF10whR4bV6vRvtgO-39" value="" style="image;aspect=fixed;perimeter=ellipsePerimeter;html=1;align=center;shadow=0;dashed=0;spacingTop=3;image=img/lib/active_directory/user_accounts.svg;direction=east;flipH=1;" parent="1" vertex="1">
          <mxGeometry x="1020" y="179.5" width="50" height="48.5" as="geometry" />
        </mxCell>
        <mxCell id="R8DhF10whR4bV6vRvtgO-44" value="" style="verticalLabelPosition=bottom;sketch=0;aspect=fixed;html=1;verticalAlign=top;strokeColor=none;align=center;outlineConnect=0;shape=mxgraph.citrix.web_server;" parent="1" vertex="1">
          <mxGeometry x="1006.75" y="540" width="76.5" height="90" as="geometry" />
        </mxCell>
        <mxCell id="R8DhF10whR4bV6vRvtgO-45" value="&lt;font style=&quot;font-size: 14px;&quot; data-font-src=&quot;https://fonts.googleapis.com/css?family=Kalam&quot; face=&quot;Kalam&quot;&gt;Publisher&#39;s &lt;font style=&quot;font-size: 14px;&quot; data-font-src=&quot;https://fonts.googleapis.com/css?family=Kalam&quot;&gt;Ad Server&lt;/font&gt;&lt;font style=&quot;font-size: 14px;&quot; data-font-src=&quot;https://fonts.googleapis.com/css?family=Kalam&quot;&gt;&lt;br&gt;&lt;/font&gt;&lt;/font&gt;" style="text;html=1;align=center;verticalAlign=middle;whiteSpace=wrap;rounded=0;" parent="1" vertex="1">
          <mxGeometry x="1070" y="515" width="130" height="30" as="geometry" />
        </mxCell>
        <mxCell id="R8DhF10whR4bV6vRvtgO-46" value="&lt;font style=&quot;font-size: 20px;&quot; face=&quot;Kalam&quot;&gt;Supply / Sell Side&lt;br&gt;&lt;/font&gt;" style="text;html=1;align=center;verticalAlign=middle;whiteSpace=wrap;rounded=0;" parent="1" vertex="1">
          <mxGeometry x="990" y="92" width="183" height="30" as="geometry" />
        </mxCell>
        <mxCell id="R8DhF10whR4bV6vRvtgO-76" value="" style="edgeStyle=elbowEdgeStyle;elbow=horizontal;endArrow=classic;html=1;curved=0;rounded=0;endSize=8;startSize=8;fontFamily=Helvetica;fontSize=12;fontColor=default;sketch=1;curveFitting=1;jiggle=2;startArrow=classic;startFill=1;" parent="1" source="R8DhF10whR4bV6vRvtgO-31" target="R8DhF10whR4bV6vRvtgO-24" edge="1">
          <mxGeometry width="50" height="50" relative="1" as="geometry">
            <mxPoint x="630.5" y="506" as="sourcePoint" />
            <mxPoint x="675" y="414" as="targetPoint" />
            <Array as="points">
              <mxPoint x="610" y="490" />
            </Array>
          </mxGeometry>
        </mxCell>
        <mxCell id="R8DhF10whR4bV6vRvtgO-82" value="" style="verticalLabelPosition=bottom;aspect=fixed;html=1;verticalAlign=top;strokeColor=none;align=center;outlineConnect=0;shape=mxgraph.citrix.command_center;rounded=0;fontFamily=Helvetica;fontSize=12;fontColor=default;fillColor=none;gradientColor=none;" parent="1" vertex="1">
          <mxGeometry x="671.25" y="83.5" width="75.5" height="96" as="geometry" />
        </mxCell>
        <mxCell id="R8DhF10whR4bV6vRvtgO-83" value="" style="edgeStyle=elbowEdgeStyle;elbow=horizontal;endArrow=classic;html=1;curved=0;rounded=0;endSize=8;startSize=8;fontFamily=Helvetica;fontSize=12;fontColor=default;entryX=0.035;entryY=0.398;entryDx=0;entryDy=0;entryPerimeter=0;sketch=1;curveFitting=1;jiggle=2;" parent="1" source="R8DhF10whR4bV6vRvtgO-23" edge="1">
          <mxGeometry width="50" height="50" relative="1" as="geometry">
            <mxPoint x="819.75" y="345.75" as="sourcePoint" />
            <mxPoint x="738.75" y="380.75" as="targetPoint" />
            <Array as="points">
              <mxPoint x="800" y="381" />
            </Array>
          </mxGeometry>
        </mxCell>
        <mxCell id="R8DhF10whR4bV6vRvtgO-84" value="" style="edgeStyle=elbowEdgeStyle;elbow=horizontal;endArrow=classic;html=1;curved=0;rounded=0;endSize=8;startSize=8;fontFamily=Helvetica;fontSize=12;fontColor=default;entryX=0.035;entryY=0.398;entryDx=0;entryDy=0;entryPerimeter=0;sketch=1;curveFitting=1;jiggle=2;" parent="1" edge="1">
          <mxGeometry width="50" height="50" relative="1" as="geometry">
            <mxPoint x="630" y="330" as="sourcePoint" />
            <mxPoint x="689.25" y="380.75" as="targetPoint" />
            <Array as="points">
              <mxPoint x="630" y="360" />
            </Array>
          </mxGeometry>
        </mxCell>
        <mxCell id="R8DhF10whR4bV6vRvtgO-93" value="&lt;div align=&quot;center&quot;&gt;&lt;font face=&quot;Kalam&quot; style=&quot;font-size: 14px;&quot; data-font-src=&quot;https://fonts.googleapis.com/css?family=Kalam&quot;&gt;Ad Network&lt;/font&gt;s&lt;/div&gt;" style="text;html=1;align=center;verticalAlign=middle;whiteSpace=wrap;rounded=0;" parent="1" vertex="1">
          <mxGeometry x="540.5" y="164.75" width="148.75" height="30" as="geometry" />
        </mxCell>
        <mxCell id="R8DhF10whR4bV6vRvtgO-103" value="" style="dashed=0;outlineConnect=0;html=1;align=center;labelPosition=center;verticalLabelPosition=bottom;verticalAlign=top;shape=mxgraph.weblogos.linkedin;fillColor=#0095DB;gradientColor=#006391;rounded=0;fontFamily=Helvetica;fontSize=12;fontColor=default;labelBackgroundColor=default;" parent="1" vertex="1">
          <mxGeometry x="1080" y="158" width="30" height="28.05" as="geometry" />
        </mxCell>
        <mxCell id="R8DhF10whR4bV6vRvtgO-105" value="" style="verticalLabelPosition=bottom;html=1;verticalAlign=top;align=center;strokeColor=none;fillColor=#00BEF2;shape=mxgraph.azure.website_generic;pointerEvents=1;rounded=0;fontFamily=Helvetica;fontSize=12;fontColor=default;labelBackgroundColor=default;" parent="1" vertex="1">
          <mxGeometry x="1115.5" y="152.25" width="50" height="42.5" as="geometry" />
        </mxCell>
        <mxCell id="R8DhF10whR4bV6vRvtgO-107" style="edgeStyle=orthogonalEdgeStyle;shape=connector;rounded=0;sketch=1;jiggle=2;curveFitting=1;orthogonalLoop=1;jettySize=auto;html=1;entryX=0.419;entryY=0.016;entryDx=0;entryDy=0;entryPerimeter=0;strokeColor=default;align=center;verticalAlign=middle;fontFamily=Helvetica;fontSize=12;fontColor=default;labelBackgroundColor=default;endArrow=classic;startArrow=classic;startFill=1;exitX=0.522;exitY=1.066;exitDx=0;exitDy=0;exitPerimeter=0;" parent="1" source="R8DhF10whR4bV6vRvtgO-112" target="R8DhF10whR4bV6vRvtgO-21" edge="1">
          <mxGeometry relative="1" as="geometry">
            <mxPoint x="711" y="197" as="sourcePoint" />
          </mxGeometry>
        </mxCell>
        <mxCell id="R8DhF10whR4bV6vRvtgO-108" value="" style="verticalLabelPosition=bottom;aspect=fixed;html=1;verticalAlign=top;strokeColor=none;align=center;outlineConnect=0;shape=mxgraph.citrix.command_center;rounded=0;fontFamily=Helvetica;fontSize=12;fontColor=default;fillColor=none;gradientColor=none;" parent="1" vertex="1">
          <mxGeometry x="590" y="83.5" width="75.5" height="96" as="geometry" />
        </mxCell>
        <mxCell id="R8DhF10whR4bV6vRvtgO-112" value="" style="rounded=1;whiteSpace=wrap;html=1;align=center;verticalAlign=middle;fontFamily=Helvetica;fontSize=12;fontColor=default;labelBackgroundColor=default;fillColor=none;gradientColor=none;sketch=1;curveFitting=1;jiggle=2;" parent="1" vertex="1">
          <mxGeometry x="567.75" y="83.5" width="272.25" height="106.5" as="geometry" />
        </mxCell>
        <mxCell id="R8DhF10whR4bV6vRvtgO-109" value="" style="verticalLabelPosition=bottom;aspect=fixed;html=1;verticalAlign=top;strokeColor=none;align=center;outlineConnect=0;shape=mxgraph.citrix.command_center;rounded=0;fontFamily=Helvetica;fontSize=12;fontColor=default;fillColor=none;gradientColor=none;" parent="1" vertex="1">
          <mxGeometry x="675" y="90.05" width="75.5" height="96" as="geometry" />
        </mxCell>
        <mxCell id="R8DhF10whR4bV6vRvtgO-113" value="" style="edgeStyle=elbowEdgeStyle;elbow=horizontal;endArrow=classic;html=1;curved=0;rounded=0;endSize=8;startSize=8;fontFamily=Helvetica;fontSize=12;fontColor=default;sketch=1;curveFitting=1;jiggle=2;startArrow=classic;startFill=1;" parent="1" edge="1">
          <mxGeometry width="50" height="50" relative="1" as="geometry">
            <mxPoint x="820" y="540" as="sourcePoint" />
            <mxPoint x="820" y="328" as="targetPoint" />
            <Array as="points">
              <mxPoint x="820" y="485" />
            </Array>
          </mxGeometry>
        </mxCell>
        <mxCell id="R8DhF10whR4bV6vRvtgO-114" style="edgeStyle=orthogonalEdgeStyle;rounded=0;orthogonalLoop=1;jettySize=auto;html=1;sketch=1;curveFitting=1;jiggle=2;" parent="1" edge="1">
          <mxGeometry relative="1" as="geometry">
            <mxPoint x="263" y="228" as="sourcePoint" />
            <mxPoint x="580" y="290" as="targetPoint" />
            <Array as="points">
              <mxPoint x="263" y="290" />
            </Array>
          </mxGeometry>
        </mxCell>
        <mxCell id="R8DhF10whR4bV6vRvtgO-115" style="edgeStyle=orthogonalEdgeStyle;rounded=0;orthogonalLoop=1;jettySize=auto;html=1;entryX=0.012;entryY=0.437;entryDx=0;entryDy=0;entryPerimeter=0;sketch=1;curveFitting=1;jiggle=2;" parent="1" edge="1">
          <mxGeometry relative="1" as="geometry">
            <mxPoint x="288" y="204" as="sourcePoint" />
            <mxPoint x="571" y="130" as="targetPoint" />
            <Array as="points">
              <mxPoint x="430" y="204" />
              <mxPoint x="430" y="140" />
              <mxPoint x="571" y="140" />
            </Array>
          </mxGeometry>
        </mxCell>
        <mxCell id="R8DhF10whR4bV6vRvtgO-116" style="edgeStyle=orthogonalEdgeStyle;rounded=0;orthogonalLoop=1;jettySize=auto;html=1;sketch=1;curveFitting=1;jiggle=2;" parent="1" edge="1">
          <mxGeometry relative="1" as="geometry">
            <mxPoint x="1032" y="228" as="sourcePoint" />
            <mxPoint x="843.5" y="280" as="targetPoint" />
            <Array as="points">
              <mxPoint x="1050" y="228" />
              <mxPoint x="1050" y="280" />
            </Array>
          </mxGeometry>
        </mxCell>
        <mxCell id="R8DhF10whR4bV6vRvtgO-117" style="edgeStyle=orthogonalEdgeStyle;rounded=0;orthogonalLoop=1;jettySize=auto;html=1;entryX=1.029;entryY=0.446;entryDx=0;entryDy=0;entryPerimeter=0;sketch=1;curveFitting=1;jiggle=2;" parent="1" edge="1">
          <mxGeometry relative="1" as="geometry">
            <Array as="points">
              <mxPoint x="950" y="204" />
              <mxPoint x="950" y="131" />
            </Array>
            <mxPoint x="1020" y="204" as="sourcePoint" />
            <mxPoint x="848" y="131" as="targetPoint" />
          </mxGeometry>
        </mxCell>
        <mxCell id="R8DhF10whR4bV6vRvtgO-123" style="edgeStyle=orthogonalEdgeStyle;shape=connector;rounded=0;sketch=1;jiggle=2;curveFitting=1;orthogonalLoop=1;jettySize=auto;html=1;strokeColor=default;align=center;verticalAlign=middle;fontFamily=Helvetica;fontSize=12;fontColor=default;labelBackgroundColor=default;endArrow=classic;" parent="1" source="R8DhF10whR4bV6vRvtgO-44" edge="1">
          <mxGeometry relative="1" as="geometry">
            <mxPoint x="839.9999999999998" y="333" as="targetPoint" />
            <mxPoint x="1040" y="500" as="sourcePoint" />
            <Array as="points">
              <mxPoint x="1045" y="393" />
              <mxPoint x="840" y="393" />
            </Array>
          </mxGeometry>
        </mxCell>
        <mxCell id="R8DhF10whR4bV6vRvtgO-124" value="&lt;font face=&quot;Kalam&quot; style=&quot;font-size: 14px;&quot; data-font-src=&quot;https://fonts.googleapis.com/css?family=Kalam&quot;&gt;Ads&lt;br&gt;&lt;/font&gt;" style="text;html=1;align=center;verticalAlign=middle;whiteSpace=wrap;rounded=0;" parent="1" vertex="1">
          <mxGeometry x="180" y="146.00000000000003" width="130" height="30" as="geometry" />
        </mxCell>
        <mxCell id="R8DhF10whR4bV6vRvtgO-125" value="" style="dashed=0;outlineConnect=0;html=1;align=center;labelPosition=center;verticalLabelPosition=bottom;verticalAlign=top;shape=mxgraph.weblogos.apple;fillColor=#1B1C1C;strokeColor=none" parent="1" vertex="1">
          <mxGeometry x="200" y="143.45" width="29" height="36.05" as="geometry" />
        </mxCell>
      </root>
    </mxGraphModel>
  </diagram>
</mxfile>
